<svg xmlns="http://www.w3.org/2000/svg" width="150" height="150" viewBox="0 0 150 150">
  <g id="グループ_13" data-name="グループ 13" transform="translate(-983 -1480)">
    <circle id="楕円形_1" data-name="楕円形 1" cx="75" cy="75" r="75" transform="translate(983 1480)" fill="#fff"/>
    <g id="ゲームアイコン8" transform="translate(1008 1424.029)">
      <path id="パス_8" data-name="パス 8" d="M98.777,143.916l-5.759-24.491a24.9,24.9,0,0,0-24.051-18.454H30.112A24.9,24.9,0,0,0,6.061,119.425L.3,143.916a14.058,14.058,0,0,0,9.41,16.255l.337.108a14.056,14.056,0,0,0,16.532-6.353l5.011-7.409a7.049,7.049,0,0,1,6.105-3.532H61.383a7.048,7.048,0,0,1,6.105,3.532l5.011,7.409a14.058,14.058,0,0,0,16.533,6.353l.335-.108A14.058,14.058,0,0,0,98.777,143.916ZM36.97,127.5H28.9v8.069H21.879V127.5H13.812v-7.02h8.067v-8.066H28.9v8.066H36.97Zm35.545-16.767a4.42,4.42,0,1,1-4.418,4.421A4.419,4.419,0,0,1,72.515,110.737Zm-8.839,17.68a4.421,4.421,0,1,1,4.42-4.423A4.421,4.421,0,0,1,63.675,128.417Zm8.839,8.838a4.42,4.42,0,1,1,4.421-4.418A4.418,4.418,0,0,1,72.515,137.255Zm8.839-8.838a4.421,4.421,0,1,1,4.421-4.423A4.42,4.42,0,0,1,81.354,128.417Z" transform="translate(0)" fill="#3c6bb9"/>
    </g>
  </g>
</svg>
