<svg xmlns="http://www.w3.org/2000/svg" width="150" height="150" viewBox="0 0 150 150">
  <g id="グループ_13" data-name="グループ 13" transform="translate(-566 -1480)">
    <circle id="楕円形_1" data-name="楕円形 1" cx="75" cy="75" r="75" transform="translate(566 1480)" fill="#fff"/>
    <g id="iPhone風のスマートフォンのアイコン素材" transform="translate(500.723 1515)">
      <path id="パス_7" data-name="パス 7" d="M152.328,0H125.577a8.309,8.309,0,0,0-8.3,8.3V71.7a8.31,8.31,0,0,0,8.3,8.3h26.751a8.31,8.31,0,0,0,8.3-8.3V8.3A8.309,8.309,0,0,0,152.328,0ZM138.952,75.1a3.363,3.363,0,1,1,3.363-3.363A3.367,3.367,0,0,1,138.952,75.1Zm16.762-64.586V63.66H122.191V10.511Z" fill="#3c6bb9"/>
    </g>
  </g>
</svg>
